<svg xmlns="http://www.w3.org/2000/svg" width="256" height="256" viewBox="0 0 256 256" shape-rendering="crispEdges"><g><rect x="96" y="30" width="64" height="14" fill="#3a482d"/><rect x="78" y="44" width="100" height="18" fill="#50643b"/><rect x="62" y="62" width="132" height="18" fill="#65814c"/><rect x="48" y="80" width="160" height="22" fill="#76975a"/><rect x="38" y="102" width="180" height="20" fill="#6e8e52"/><rect x="48" y="122" width="160" height="18" fill="#5d7844"/><rect x="60" y="140" width="136" height="14" fill="#4a6037"/><rect x="32" y="88" width="18" height="18" fill="#77985a"/><rect x="14" y="76" width="18" height="14" fill="#5c7545"/><rect x="206" y="88" width="18" height="18" fill="#77985a"/><rect x="224" y="76" width="18" height="14" fill="#5c7545"/><rect x="82" y="78" width="92" height="58" fill="#657f4b"/><rect x="92" y="88" width="72" height="40" fill="#5a7143"/><rect x="72" y="154" width="112" height="20" fill="#4b392b"/><rect x="62" y="174" width="132" height="36" fill="#604533"/><rect x="50" y="184" width="28" height="18" fill="#806044"/><rect x="178" y="184" width="28" height="18" fill="#806044"/><rect x="76" y="210" width="36" height="24" fill="#414b35"/><rect x="144" y="210" width="36" height="24" fill="#414b35"/><rect x="68" y="234" width="48" height="10" fill="#252b23"/><rect x="140" y="234" width="48" height="10" fill="#252b23"/><rect x="112" y="166" width="32" height="34" fill="#8a6b46"/><rect x="118" y="170" width="20" height="26" fill="#b8925f"/></g></svg>