<svg xmlns="http://www.w3.org/2000/svg" viewBox="0 0 100 100"><defs><linearGradient id="g" x1="0" y1="0" x2="0" y2="1"><stop stop-color="#596253"/><stop offset="1" stop-color="#242a25"/></linearGradient></defs><rect width="100" height="100" fill="#151a17"/><g fill="url(#g)" stroke="#171b18" stroke-width="3"><rect x="2" y="4" width="30" height="20" rx="2"/><rect x="34" y="4" width="31" height="20" rx="2"/><rect x="67" y="4" width="31" height="20" rx="2"/><rect x="-8" y="26" width="31" height="21" rx="2"/><rect x="25" y="26" width="31" height="21" rx="2"/><rect x="58" y="26" width="31" height="21" rx="2"/><rect x="91" y="26" width="20" height="21" rx="2"/><rect x="2" y="49" width="30" height="22" rx="2"/><rect x="34" y="49" width="31" height="22" rx="2"/><rect x="67" y="49" width="31" height="22" rx="2"/><rect x="-8" y="73" width="31" height="25" rx="2"/><rect x="25" y="73" width="31" height="25" rx="2"/><rect x="58" y="73" width="31" height="25" rx="2"/><rect x="91" y="73" width="20" height="25" rx="2"/></g><g fill="#667d42" opacity=".9"><path d="M0 10h28l-8 7H3z"/><path d="M62 50h25l-4 8-17-2z"/><circle cx="14" cy="66" r="5"/><circle cx="20" cy="67" r="3"/></g></svg>